<svg version="1.1" xmlns="http://www.w3.org/2000/svg" x="0" y="0" viewBox="0 0 600 600" xml:space="preserve"><style>.s0{fill:#41BB93;stroke-width:1.5449;stroke:#000;}.s1{fill:#41BB93;}</style><path d="M306 412.7c1.5 6.7-2.6 13.3-9.3 14.8l-186.7 43c-6.7 1.5-13.3-2.6-14.8-9.3L24.5 154.1c-1.5-6.7 2.6-13.3 9.3-14.8l186.7-43c6.7-1.5 13.3 2.6 14.8 9.3L306 412.7z" class="s0"/><rect x="72.5" y="128.9" transform="matrix(0.9745 -0.2244 0.2244 0.9745 -59.3836 44.3109)" width="185.4" height="309"/><path d="M180.4 144.7c-26.6-16.1-62.8-12.3-82.1 12.5 -50.5 69.3-31.1 167.7 19.6 231.8 22.9 28.6 62.5 48.9 95.7 27.7 16.1-10.5 26.6-26.5 33.2-45 26.6-83-5-201.3-92.7-222.9 -28.8-6.9-52 15.4-63.6 40.7 -17.9 40.3-14.7 82.6-3.3 122.9 14 46.5 46.9 104.5 101.2 98.8 33.1-3.1 50.4-36.5 56.4-67.3 10.5-68-9.6-150.5-78.5-179.8 -38.8-17.1-69.3 20.5-76.1 57.1 -11.5 63.7 7.1 139.7 66.1 173.6 14.9 7.9 32.2 7.3 46.7-0.6 29.6-18.1 37.4-55 36.2-88.6 -2.3-52.6-20.6-108.3-72.5-130.3 -26.2-9.8-52.9 6.5-61.2 32.2 12.8-39.1 61.8-43.6 88.1-14.6 30.4 32.6 44.4 74.6 45 119.7 -0.1 37.3-14.3 84.7-56.6 85.4 -48.8 1.1-76.9-50.1-86.8-93.1 -11.7-45.9-13.4-105.5 27.7-135.3 26.2-18.5 60.4-2.6 79.8 20.1 48.2 57.9 67.8 157.4 8.2 210.7 -15.4 13.7-35.2 12.6-53.4 4.4 -42.9-20.7-64.1-65.5-73.5-110.9 -10.6-50.7-6-120.7 48.1-141.1 23-8.7 46.2 1.8 65.3 18.9 38.9 36.3 53.3 85 56.4 136.3 1.3 48.3-12.7 110.4-66.4 113.7 -59.1 3.4-93.3-59.9-107.5-112.1 -14.1-56.7-14.9-135.7 43.2-167.1 15.6-8.1 32.3-6.3 48.2 1.3 68.6 32.8 92 115.7 89.7 186.3 2.3-75.2-27.5-171.2-105.9-190.5 -45-11.1-75.2 37.7-80.8 79.7 -10.3 78.1 20.9 185.2 104.3 202.2 33 6 57.5-24.6 67.1-53.9 17.3-57.1 6.3-119.1-25.7-168.2 -16.5-24.5-40.5-48.3-71.2-49.2 -29.7-1.1-49.5 21.6-59.6 48.8 -17.5 47-10 93.9 9.2 139.2 17.1 41.3 56.7 85.3 101.5 67.1 47.7-20 49.8-81.6 41.5-127.2 -7.3-45.8-29.5-95-76-112.5 -29.6-10.2-56.8 8.6-67.7 37.1C79.9 251.9 87.6 304.4 113 348.3c16.2 27.9 47.1 58.1 80.3 46 39.3-13.6 47-60.6 43.6-99.4 -5.2-50.8-29.6-114.2-83.7-117.6 -49.8-3.2-61.5 59.4-55.2 100.9 4.6 29.5 13.6 59.1 34.8 80.2 -29.3-32.8-40-79-33.6-122.3 4.4-23.6 14.9-48.7 38.2-56.3 31.1-11.7 58.7 13.6 74.4 39.4 28.9 49.9 41.1 121.7-3.2 165.8 -18.7 17.9-46 12.9-65-3.1 -50.1-42.7-66.2-112.5-45.7-174.9 7.7-18.7 20.2-35.2 38.6-40.5 34.9-9.2 64.6 20.2 81 49.2 30.7 52.9 44.2 125.5-0.7 176.6 -12 14.1-29.6 18.1-46.8 14.2 -30.1-7.8-51-32.4-64.9-59.7 -30.1-59.8-41.6-152.1 22-188.3 22.1-13 47.2-3 66.2 13 43.7 38.6 59.9 94.8 58.9 151.6 -1.5 45.6-27.1 104.6-78.3 94.9 -42-7.3-68.4-46.4-84-85.8 -22.9-61.5-29-149.4 32.5-185 23.1-13.2 49.8-5.8 70.1 11 70.6 60.6 93.5 174.1 39.3 251.1 -19.1 25.9-55.5 28.6-82.2 12.1 19 11.5 43.5 13.7 62.7 2.5 50.9-29.8 53.4-99.4 43.1-153.5 -12.6-59.3-51.8-135.1-118.7-127.6 -26.6 2.7-45.1 26.2-53.4 51.9 -24 80.2-1.6 182.4 78.8 219.3 42.9 20.7 77.9-21.3 86-61.6 13.4-74.3-12.9-179.1-92-196 -54.1-12.4-75.6 54.7-73.5 101.7 2.8 54.8 22.1 110.3 69.3 140.1 34.4 21.5 72.8-0.9 84-37.4 22.4-73-4.1-187.9-88.9-192.1 -43.1-2.5-57.8 51.8-56.1 92.1 2.3 52.6 20.6 108.3 72.5 130.3 25.2 10 54-6.8 61.2-32.2 -6.9 17.4-21.7 33.3-40.3 33 -59.6 1.3-86.3-67.2-91.7-119.1 -4.2-42 6.9-102.2 55.7-103.3 60.6-1.5 86.8 69.4 93.5 122.1 4.5 43.1-4.1 105-52.2 109.3 -83.1 7.8-113.7-106.1-103-177.6 5.8-40.9 42.6-84.5 85.8-62.7 61.9 32.1 82.3 106.6 76.7 172.3 -2.7 35.7-20.6 76-56.3 81.9 -54.5 9.2-90.8-49.2-106.3-97.6 -17-54.9-18.1-125.9 29-162.7 22.9-18.8 54-11.3 76.6 6.1 41.7 34.5 60.8 84.4 65.4 137.6 3.6 48.9-6 111.1-56.7 127.3 -29.2 10.1-58-5.9-78.4-28.3C82.5 353.1 66.5 293.4 68.7 236.4c-2.1 57 13.3 114.5 51.8 158.8 20.4 22.4 50.1 42.7 79.9 30.2 84-37.4 65.3-156.4 25.5-225.3 -21.6-36.9-66.9-72.8-106.8-47.8 -42.8 26.8-46.8 85.4-40 133.6 5.4 32.7 17.7 62.6 37 89.9 20.6 28 58 53.4 90.5 33.4 60-37.6 50.8-124.8 22.5-186.1 -17.7-38.9-55.7-81-99.2-62 -47.7 20-50.4 84-42 129.6 9.6 51 43.7 118.9 101.8 111.1 31.8-3.9 46.6-39 50.5-69.3 4.8-45.2-5.8-91.4-33-129.2 -19.3-27.2-58.1-48.8-85.9-23.2 -25.3 22.8-31.3 58.1-28 91.3 5.2 46.3 22.8 94.3 67 115.8 21.8 9.7 45.9 0.7 57.7-18.9 29.7-50.9 14.6-116.4-19.6-160.6 27 32.2 38.2 76 33.7 117.8 -3.9 25.8-13.9 53-39.3 61.1 -37.3 13.1-67.1-21.9-82.5-55.6 -22.2-49.2-27.8-111.2 11.5-148.5 22.4-21 54.3-10.2 74.2 10.1 41.9 44.6 54.4 108.5 36.3 166.9 -10.7 34.1-47.5 53.9-79 35.2 -41.8-25.4-60.7-74.2-66.1-121.6 -3.8-35.3 1-71.5 26.3-98.8 12.3-13 29.6-18.1 46.8-14.2 34.5 7.9 55.9 39.2 70.8 70.8 25.5 58.6 34.7 145.8-28.1 176.1 -55 26.2-98.4-39.5-113.9-88 -19.3-60-19.5-165.1 55.8-168.9 75.6-2.7 107.5 88.3 111.2 156.5 2.4 48.1-12 113.6-65.7 116.9 -71.8 5.2-108.6-79-117-143.8 -5.6-38.3-1.8-78.7 18.7-112.9 18.3-29.1 54.8-40.9 84.6-24C179.3 144.1 180.4 144.7 180.4 144.7z" fill="#41BB93"/><path d="M232.8 267.8c13.5 58.7-5.8 113.2-43.1 121.8 -37.3 8.6-78.5-32-92-90.7 -13.5-58.7 5.8-113.2 43.1-121.8C178.1 168.6 219.2 209.2 232.8 267.8z"/><path d="M176.5 180.7c-19.7-12-46.5-9.1-60.8 9.2 -37.4 51.3-23 124.2 14.5 171.7 17 21.2 46.3 36.2 70.9 20.5 11.9-7.8 19.7-19.6 24.6-33.3 19.7-61.5-3.7-149.1-68.7-165.1 -21.3-5.1-38.5 11.4-47.1 30.1 -13.3 29.9-10.9 61.1-2.4 91 10.4 34.5 34.8 77.4 74.9 73.2 24.5-2.3 37.3-27 41.8-49.8 7.8-50.4-7.1-111.4-58.1-133.2 -28.7-12.6-51.4 15.2-56.4 42.3 -8.5 47.2 5.3 103.5 49 128.6 11 5.8 23.8 5.4 34.6-0.4 21.9-13.4 27.7-40.7 26.8-65.6 -1.7-39-15.3-80.2-53.7-96.5 -19.4-7.3-39.2 4.8-45.3 23.8 9.5-29 45.8-32.3 65.3-10.8 22.5 24.1 32.9 55.2 33.3 88.6 -0.1 27.7-10.6 62.7-41.9 63.3 -36.1 0.8-57-37.1-64.3-69 -8.6-34-9.9-78.1 20.5-100.2 19.4-13.7 44.7-1.9 59.1 14.9 35.7 42.9 50.2 116.6 6.1 156.1 -11.4 10.2-26.1 9.4-39.6 3.3 -31.8-15.3-47.5-48.5-54.4-82.1 -7.8-37.6-4.5-89.4 35.6-104.5 17.1-6.4 34.2 1.3 48.4 14 28.8 26.9 39.5 62.9 41.8 100.9 1 35.8-9.4 81.7-49.2 84.2 -43.8 2.5-69.1-44.4-79.6-83 -10.5-42-11-100.5 32-123.8 11.5-6 23.9-4.7 35.7 1 50.8 24.3 68.1 85.7 66.5 138 1.7-55.7-20.3-126.8-78.5-141.1 -33.4-8.2-55.7 27.9-59.8 59 -7.6 57.9 15.5 137.2 77.2 149.7 24.4 4.4 42.6-18.2 49.7-39.9 12.8-42.3 4.7-88.2-19-124.6 -12.2-18.1-30-35.8-52.8-36.4 -22-0.8-36.6 16-44.1 36.1 -13 34.8-7.4 69.5 6.8 103.1 12.7 30.6 42 63.2 75.2 49.7 35.3-14.8 36.9-60.4 30.7-94.2 -5.4-33.9-21.8-70.3-56.3-83.4 -21.9-7.5-42.1 6.3-50.1 27.5 -13.4 36.6-7.6 75.5 11.2 108 12 20.7 34.9 43 59.5 34 29.1-10.1 34.8-44.9 32.3-73.6 -3.8-37.6-21.9-84.6-62-87.1 -36.8-2.4-45.5 44-40.9 74.7 3.4 21.8 10.1 43.7 25.8 59.4 -21.7-24.3-29.6-58.5-24.9-90.6 3.2-17.5 11.1-36.1 28.3-41.7 23-8.7 43.5 10.1 55.1 29.2 21.4 36.9 30.4 90.1-2.4 122.8 -13.9 13.2-34.1 9.5-48.1-2.3 -37.1-31.6-49-83.3-33.9-129.6 5.7-13.9 15-26.1 28.6-30 25.9-6.8 47.8 15 60 36.4 22.7 39.2 32.7 93-0.5 130.8 -8.9 10.4-21.9 13.4-34.7 10.5 -22.3-5.8-37.8-24-48.1-44.2 -22.3-44.3-30.8-112.7 16.3-139.4 16.3-9.6 35-2.2 49 9.7 32.4 28.6 44.4 70.2 43.6 112.2 -1.1 33.8-20.1 77.5-58 70.3 -31.1-5.4-50.7-34.4-62.2-63.6 -16.9-45.5-21.4-110.6 24.1-137 17.1-9.8 36.9-4.3 51.9 8.1 52.3 44.9 69.2 129 29.1 185.9 -14.1 19.2-41.1 21.2-60.8 9 14.1 8.5 32.2 10.2 46.4 1.9 37.7-22.1 39.5-73.6 31.9-113.7 -9.3-43.9-38.4-100.1-87.9-94.5 -19.7 2-33.4 19.4-39.5 38.4 -17.8 59.4-1.1 135.1 58.4 162.4 31.8 15.3 57.7-15.8 63.7-45.7 9.9-55-9.6-132.6-68.1-145.1 -40-9.2-56 40.5-54.4 75.4 2.1 40.6 16.4 81.7 51.3 103.8 25.4 15.9 53.9-0.7 62.2-27.7 16.6-54.1-3-139.2-65.8-142.3 -31.9-1.9-42.8 38.3-41.6 68.2 1.7 39 15.3 80.2 53.7 96.5 18.7 7.4 40-5 45.3-23.8 -5.1 12.9-16.1 24.6-29.9 24.5 -44.1 1-63.9-49.8-67.9-88.2 -3.1-31.1 5.1-75.7 41.3-76.5 44.9-1.1 64.3 51.4 69.2 90.4 3.3 31.9-3.1 77.8-38.6 80.9 -61.6 5.8-84.2-78.6-76.3-131.5 4.3-30.3 31.6-62.5 63.5-46.5 45.8 23.8 60.9 78.9 56.8 127.6 -2 26.4-15.3 56.3-41.7 60.7 -40.4 6.8-67.3-36.4-78.8-72.3 -12.6-40.7-13.4-93.2 21.4-120.5 17-14 40-8.4 56.7 4.5 30.9 25.6 45 62.5 48.5 101.9 2.7 36.2-4.4 82.3-42 94.3 -21.7 7.5-42.9-4.3-58.1-21 -29.3-32.6-41.1-76.8-39.5-119 -1.6 42.2 9.9 84.8 38.4 117.6 15.1 16.6 37.1 31.7 59.2 22.4 62.2-27.7 48.3-115.8 18.9-166.8 -16-27.3-49.5-53.9-79.1-35.4 -31.7 19.9-34.6 63.3-29.6 99 4 24.2 13.1 46.4 27.4 66.6 15.3 20.8 43 39.5 67 24.8 44.4-27.8 37.6-92.4 16.6-137.8 -13.1-28.8-41.2-60-73.5-45.9 -35.3 14.8-37.3 62.2-31.1 96 7.1 37.7 32.4 88 75.4 82.3 23.5-2.9 34.5-28.9 37.4-51.3 3.6-33.5-4.3-67.7-24.5-95.7 -14.3-20.2-43-36.2-63.6-17.2 -18.7 16.9-23.2 43-20.7 67.6 3.9 34.3 16.9 69.8 49.6 85.7 16.2 7.2 34 0.5 42.8-14 22-37.7 10.8-86.2-14.5-118.9 20 23.9 28.3 56.3 24.9 87.2 -2.9 19.1-10.3 39.2-29.1 45.2 -27.6 9.7-49.7-16.2-61.1-41.2 -16.4-36.4-20.6-82.4 8.5-110 16.6-15.5 40.2-7.6 55 7.4 31 33.1 40.3 80.3 26.9 123.6 -7.9 25.3-35.2 39.9-58.5 26 -31-18.8-44.9-55-49-90.1 -2.8-26.2 0.7-52.9 19.5-73.2 9.1-9.6 21.9-13.4 34.7-10.5 25.5 5.8 41.4 29 52.4 52.4 18.9 43.4 25.7 108-20.8 130.4 -40.7 19.4-72.9-29.3-84.4-65.2C94.3 265.2 94.1 187.4 149.9 184.5c56-2 79.6 65.4 82.3 115.9 1.8 35.6-8.9 84.1-48.6 86.6 -53.2 3.9-80.4-58.5-86.6-106.5 -4.1-28.4-1.3-58.3 13.8-83.6 13.6-21.6 40.6-30.3 62.6-17.7C175.7 180.2 176.5 180.7 176.5 180.7z" fill="#41BB93"/><path d="M209.9 273.1c9.5 41.3-2.8 79.4-27.4 85.1 -24.7 5.7-52.4-23.2-61.9-64.5 -9.5-41.3 2.8-79.4 27.4-85.1C172.7 202.9 200.4 231.8 209.9 273.1z"/><path d="M392.8 420c-0.7 6.8-6.7 11.8-13.5 11.1l-190.7-18.5c-6.8-0.7-11.8-6.7-11.1-13.5l30.4-313.7c0.7-6.8 6.7-11.8 13.5-11.1l190.7 18.5c6.8 0.7 11.8 6.7 11.1 13.5L392.8 420z" class="s0"/><rect x="207.6" y="98.2" transform="matrix(0.9953 0.0966 -0.0966 0.9953 25.8147 -27.8271)" width="185.4" height="309"/><path d="M358.8 126.1c-20.1-23.8-55.6-31.6-81.8-14.2 -69.9 49.7-82.7 149.2-55 226.1 12.7 34.4 43.7 66.2 81.9 56.7 18.6-4.8 33.6-16.7 45.8-32.1 51.6-70.3 59.2-192.4-17.2-240.8 -25.1-15.7-54.2-1.9-73.2 18.4 -29.8 32.5-40.2 73.6-42.1 115.5 -1.5 48.6 11.3 114 64.6 125.8 32.3 7.6 59.4-18.6 74.8-45.9 31.5-61.2 38.7-145.7-17.3-195.4 -31.4-28.5-72.3-2.6-90.3 30 -31.1 56.8-37.6 134.8 7.6 185.6 11.6 12.2 28.2 17.1 44.5 14.3 33.8-7.8 53-40.3 62.5-72.5 14.5-50.6 14.9-109.3-27.4-146.6 -21.8-17.6-52.3-10.6-68.3 11.1 24.5-33.1 72.5-21.8 88.2 14.1 18.5 40.5 18.4 84.8 4.7 127.8 -12 35.4-40.4 75.8-80.8 63 -46.6-14.5-57-72-52.7-115.8 3.5-47.3 20.8-104.3 69.2-119.5 30.8-9.2 58.1 16.7 69.3 44.4 27.3 70.2 14.3 170.8-59.1 202.4 -18.9 8.1-37.4 0.8-52.1-12.8 -34.1-33.2-40-82.5-34.5-128.5 6.1-51.4 32.6-116.4 90.4-118.6 24.6-0.9 43.2 16.4 56 38.6 25.3 46.7 23.6 97.5 10.2 147.1 -14.1 46.2-47.1 100.6-99 86.7 -57.1-15.5-69.4-86.5-66.3-140.4 4.6-58.2 28.9-133.4 94-144.8 17.3-2.7 32.6 4.3 45.3 16.6 54.6 52.9 50.5 138.9 25.9 205.1 26-70.5 28.3-171.1-40-214.2 -39.2-24.8-83.3 11.8-101.9 49.9 -34.6 70.8-39 182.2 34.7 224.8 29.4 16.1 62.3-5 80.7-29.8 34.6-48.7 43.8-110.9 29.1-167.7 -7.9-28.4-23.1-58.7-51.9-69.3 -27.8-10.4-53.8 4.7-72 27.3 -31.5 39-39.3 85.9-35.5 135 3.1 44.6 26.7 98.9 74.9 95.9 51.6-3.8 73.2-61.5 79.7-107.4 7.6-45.8 2.2-99.4-36.3-130.9 -24.8-19-56.6-9.9-76 13.7 -32.8 41.1-42.1 93.3-32 143 6.5 31.6 26.3 70.1 61.5 69.1 41.6-0.4 63.8-42.5 72.8-80.4 11.2-49.8 8.2-117.7-42.1-138.1 -46.1-18.9-77.1 36.8-84.4 78.2 -5 29.4-5.9 60.3 7.5 87.1 -17.4-40.4-12.8-87.6 7-126.6 11.6-21 29.6-41.4 54.1-41.2 33.2-1.2 51.3 31.6 58.1 61 11.6 56.5 0.3 128.5-55.7 156.2 -23.5 11-47.7-2.4-60.6-23.6 -34-56.4-27.1-127.7 12.2-180.4 13.2-15.3 30.3-26.9 49.5-26.2 36 2.4 54.8 39.6 61.2 72.4 12.3 59.9 2 133.1-56.7 167.2 -15.9 9.5-33.8 7.8-48.9-1.4 -26.1-16.9-38.1-46.9-42.6-77.2 -9.6-66.3 8.9-157.5 80.6-171.5 25-5.3 45.7 12.2 58.6 33.4 29.2 50.4 26.8 108.9 7.7 162.4 -15.9 42.8-58.9 90.6-104.4 65.2 -37.5-20.2-50.1-65.8-52.4-108.1 -2.2-65.5 20-150.9 89.6-165.1 26.1-5.2 49.1 10.3 62.9 32.7 47.7 79.9 33.3 194.8-42.4 250.5 -26.3 18.5-61.7 9.5-81.8-14.6 14.4 16.9 36.8 26.8 58.6 22.3 57.7-12.1 82.1-77.3 89.6-131.9 6.9-60.2-6.2-144.5-72-158.7 -26.1-5.9-51.1 10.5-67.1 32.2 -48.2 68.4-59.4 172.5 5.1 233 34.1 33.2 80.6 4.5 101.1-31.2 36.3-66.2 44.6-173.9-25-215 -47.3-28.9-89.1 27.9-102 73.1 -14.7 52.8-14 111.6 21.2 154.9 25.8 31.3 69.3 22.2 91.5-8.8 44.4-62.1 55.8-179.5-23.3-210.4 -40-16.1-71.2 30.7-82.5 69.5 -14.5 50.6-14.9 109.3 27.4 146.6 20.7 17.5 53.3 10.7 68.3-11.1 -12.1 14.3-31.2 24.7-48.7 18.5 -56.9-17.7-60.5-91.1-49.1-142.1 9.3-41.2 39.1-94.7 85.6-80.3 58 17.8 60.3 93.3 49.9 145.5 -9.4 42.3-37.3 98.2-84.2 87.1 -81.3-19-74.2-136.7-41.3-201.1 18.5-37 67.2-66.5 101.2-32.2 48.5 50.1 44.2 127.2 18 187.8 -13.9 33-43.7 65.5-79.4 59.8 -54.6-8.6-70.5-75.5-69.8-126.4 1.3-57.4 22.8-125.1 79.1-145.1 27.7-10.6 54.8 6.4 70.7 30.1 28.6 46 30.9 99.3 18.4 151.3 -12.1 47.5-41 103.4-94.2 102.7 -31 0.3-53.1-24-65.4-51.7 -23.5-54.3-19.7-115.9 0.4-169.4 -20.1 53.4-23.7 112.8-1.3 167.1 12.2 27.8 34 56.4 66.2 54 91.5-8.8 111.5-127.6 95.7-205.5 -8.7-41.8-40.3-90.3-86.1-79.2 -49.1 11.8-71.5 66.1-80.4 114 -5.3 32.7-3.1 65 6.6 97 10.6 33.1 38.1 69 75.2 60.4 68.8-16.6 87.8-102.2 80.4-169.3 -4.4-42.5-27.1-94.5-74.4-90.3 -51.6 3.9-74.4 63.6-81 109.5 -7.1 51.3 3.7 126.6 61.3 137.7 31.4 6.4 56.5-22.2 69.9-49.7 18.9-41.3 23.5-88.5 9.7-133 -9.7-31.9-39.6-64.7-74.1-49.3 -31.2 13.6-48.1 45.2-55.5 77.7 -9.8 45.6-8.3 96.6 26.7 131 17.6 16.1 43.3 15.3 60.7 0.4 44.3-38.9 50.8-105.8 32.4-158.5 15.4 39.1 12.1 84.2-5.5 122.4 -11.9 23.2-30 45.8-56.7 45.4 -39.5 0.6-56.7-42-60.6-79 -5.5-53.7 9-114.3 58.1-137.2 27.9-12.8 54.7 7.5 67.2 33.1 25.5 55.6 17.1 120.1-18.6 169.8 -20.9 29-62.1 36-86.1 8.3 -31.6-37.4-34-89.7-24.1-136.3 7.6-34.7 23.6-67.5 56.3-85.3 15.7-8.4 33.8-7.8 48.9 1.4 30.2 18.4 40.5 54.9 44.6 89.6 5.6 63.6-13.4 149.3-82.5 158.1 -60.4 7.4-80.8-68.7-80.1-119.6 0.8-63 33.9-162.8 106.6-142.4 72.6 21.4 73.9 117.9 55.8 183.7 -13 46.3-47.4 103.9-99.4 90 -69.7-17.8-77.9-109.4-65.3-173.5 6.9-38.1 23.3-75.2 53.5-101.1 26.6-21.8 65-21.4 87.8 4.1C357.9 125.2 358.8 126.1 358.8 126.1z" fill="#41BB93"/><ellipse transform="matrix(0.9953 0.0966 -0.0966 0.9953 25.8187 -27.8308)" cx="300.3" cy="252.7" rx="69.3" ry="109"/><path d="M343.6 158.9c-14.9-17.6-41.2-23.4-60.6-10.6 -51.7 36.8-61.3 110.5-40.7 167.4 9.4 25.5 32.4 49.1 60.7 42 13.8-3.6 24.9-12.3 33.9-23.8 38.2-52.1 43.8-142.5-12.7-178.4 -18.6-11.6-40.1-1.4-54.2 13.6 -22.1 24.1-29.8 54.5-31.2 85.5 -1.1 36 8.4 84.5 47.8 93.2 23.9 5.6 44-13.8 55.4-34 23.3-45.3 28.6-107.9-12.8-144.8 -23.2-21.1-53.5-1.9-66.9 22.2 -23 42-27.9 99.8 5.6 137.5 8.6 9 20.9 12.7 32.9 10.6 25-5.8 39.2-29.8 46.3-53.7 10.7-37.5 11-80.9-20.3-108.6 -16.1-13-38.7-7.9-50.6 8.2 18.2-24.5 53.7-16.1 65.3 10.4 13.7 30 13.6 62.8 3.4 94.6 -8.9 26.2-29.9 56.1-59.8 46.7 -34.5-10.7-42.2-53.3-39.1-85.8 2.6-35 15.4-77.2 51.2-88.5 22.8-6.8 43 12.4 51.3 32.9 20.2 52 10.6 126.5-43.8 149.9 -14 6-27.7 0.6-38.6-9.5 -25.3-24.6-29.6-61.1-25.5-95.1 4.5-38.1 24.2-86.2 67-87.8 18.2-0.7 32 12.1 41.4 28.6 18.8 34.6 17.5 72.2 7.6 109 -10.4 34.2-34.9 74.5-73.4 64.2 -42.3-11.5-51.4-64-49.1-104 3.4-43.1 21.4-98.8 69.6-107.2 12.8-2 24.2 3.2 33.6 12.3 40.4 39.2 37.4 102.9 19.2 151.9 19.3-52.3 21-126.7-29.6-158.7 -29-18.4-61.7 8.8-75.5 37 -25.6 52.5-28.9 135 25.7 166.5 21.7 12 46.2-3.7 59.8-22.1 25.6-36.1 32.5-82.1 21.5-124.2 -5.9-21.1-17.1-43.5-38.5-51.3 -20.6-7.7-39.8 3.5-53.3 20.2 -23.3 28.9-29.1 63.6-26.3 100 2.3 33 19.7 73.3 55.5 71 38.2-2.9 54.2-45.6 59.1-79.6 5.7-33.9 1.6-73.6-26.9-96.9 -18.4-14.1-41.9-7.3-56.3 10.1 -24.3 30.4-31.2 69.1-23.7 105.9 4.8 23.4 19.4 51.9 45.6 51.2 30.8-0.3 47.3-31.5 54-59.5 8.3-36.9 6.1-87.2-31.1-102.2 -34.2-14-57.1 27.3-62.5 57.9 -3.7 21.8-4.3 44.7 5.6 64.5 -12.9-30-9.5-64.9 5.2-93.8 8.6-15.6 21.9-30.7 40.1-30.6 24.6-0.9 38 23.4 43 45.2 8.6 41.8 0.2 95.1-41.2 115.7 -17.4 8.1-35.4-1.8-44.9-17.5 -25.2-41.8-20-94.6 9-133.6 9.8-11.4 22.5-20 36.6-19.4 26.7 1.8 40.6 29.4 45.3 53.6 9.1 44.3 1.5 98.5-42 123.8 -11.7 7.1-25 5.8-36.2-1.1 -19.3-12.5-28.2-34.7-31.6-57.2 -7.1-49.1 6.6-116.6 59.7-127 18.5-3.9 33.9 9 43.4 24.7 21.6 37.4 19.8 80.6 5.7 120.3 -11.8 31.7-43.6 67.1-77.3 48.3 -27.8-15-37.1-48.7-38.8-80 -1.6-48.5 14.8-111.7 66.4-122.3 19.3-3.9 36.4 7.6 46.6 24.2 35.3 59.2 24.7 144.3-31.4 185.6 -19.5 13.7-45.7 7-60.6-10.8 10.6 12.5 27.3 19.9 43.4 16.5 42.7-9 60.8-57.2 66.3-97.7 5.1-44.6-4.6-107.1-53.4-117.5 -19.3-4.3-37.9 7.8-49.7 23.9 -35.7 50.7-44 127.8 3.8 172.6 25.3 24.6 59.7 3.3 74.9-23.1 26.9-49.1 33-128.8-18.5-159.2 -35-21.4-66 20.7-75.5 54.2 -10.9 39.1-10.4 82.6 15.7 114.7 19.1 23.2 51.3 16.5 67.8-6.5 32.9-46 41.3-132.9-17.3-155.8 -29.6-11.9-52.8 22.8-61.1 51.5 -10.7 37.5-11 80.9 20.3 108.6 15.3 13 39.5 7.9 50.6-8.2 -8.9 10.6-23.1 18.3-36.1 13.7 -42.2-13.1-44.8-67.5-36.4-105.2 6.9-30.5 28.9-70.2 63.4-59.4 42.9 13.2 44.6 69.1 36.9 107.7 -7 31.3-27.6 72.8-62.3 64.5 -60.2-14-54.9-101.3-30.6-148.9 13.7-27.4 49.8-49.3 75-23.9 35.9 37.1 32.7 94.2 13.4 139.1 -10.3 24.4-32.3 48.5-58.8 44.3 -40.4-6.4-52.2-55.9-51.7-93.6 1-42.5 16.9-92.7 58.6-107.5 20.5-7.9 40.6 4.8 52.3 22.3 21.2 34 22.9 73.6 13.6 112 -8.9 35.2-30.3 76.6-69.8 76.1 -22.9 0.2-39.3-17.8-48.4-38.3 -17.4-40.2-14.6-85.9 0.3-125.4 -14.9 39.6-17.6 83.6-0.9 123.7 9.1 20.6 25.2 41.8 49 40 67.8-6.5 82.6-94.5 70.8-152.2 -6.5-31-29.8-66.9-63.8-58.7 -36.4 8.8-52.9 49-59.5 84.4 -3.9 24.2-2.3 48.2 4.9 71.8 7.9 24.5 28.2 51.1 55.7 44.8 50.9-12.3 65-75.7 59.6-125.4 -3.3-31.5-20-70-55.1-66.8 -38.2 2.9-55.1 47.1-60 81.1 -5.3 38 2.7 93.8 45.4 102 23.2 4.7 41.9-16.4 51.7-36.8 14-30.6 17.4-65.5 7.2-98.5 -7.2-23.7-29.3-47.9-54.9-36.5 -23.1 10.1-35.6 33.4-41.1 57.5 -7.2 33.7-6.2 71.6 19.8 97 13.1 11.9 32.1 11.3 45 0.3 32.8-28.8 37.6-78.4 24-117.4 11.4 29 9 62.4-4.1 90.6 -8.8 17.2-22.2 33.9-42 33.6 -29.3 0.4-42-31.1-44.9-58.5 -4-39.8 6.6-84.6 43-101.6 20.7-9.5 40.5 5.6 49.7 24.5 18.9 41.2 12.7 89-13.8 125.8 -15.5 21.5-46 26.7-63.8 6.1 -23.4-27.7-25.1-66.4-17.8-101 5.7-25.7 17.5-50 41.7-63.2 11.7-6.2 25-5.8 36.2 1.1 22.4 13.7 30 40.6 33.1 66.4 4.1 47.1-9.9 110.6-61.1 117.1 -44.8 5.5-59.8-50.9-59.3-88.6 0.6-46.7 25.1-120.6 79-105.5 53.7 15.9 54.7 87.3 41.3 136 -9.6 34.3-35.1 77-73.6 66.7 -51.6-13.2-57.7-81-48.3-128.5 5.1-28.2 17.3-55.7 39.6-74.9 19.7-16.1 48.1-15.8 65 3.1C343 158.2 343.6 158.9 343.6 158.9z" fill="#41BB93"/><path d="M345.9 257.2c-4.1 42.2-27.8 74.4-53 72 -25.2-2.4-42.3-38.6-38.2-80.8 4.1-42.2 27.8-74.4 53-72C332.9 178.8 350 215 345.9 257.2z"/><path d="M416.6 518.8c-3.4 5.9-11 8-16.9 4.6L233.7 427.8c-5.9-3.4-8-11-4.6-16.9l157.1-273.2c3.4-5.9 11-8 16.9-4.6l166.1 95.5c5.9 3.4 8 11 4.5 16.9L416.6 518.8z" class="s0"/><rect x="308.8" y="173.8" transform="matrix(0.8668 0.4986 -0.4986 0.8668 217.1413 -156.4509)" width="185.4" height="309"/><path d="M506.9 237c-8.5-29.9-37.6-51.7-68.6-46.7 -84.1 16.4-136.9 101.8-143.4 183.3 -2.7 36.6 12.5 78.4 51.3 85.4 18.9 3.3 37.5-1.3 54.9-10.4 76-42.7 133.3-150.9 83.7-226.5 -16.4-24.7-48.6-24.1-74.3-13.5 -40.6 17.3-67 50.5-86 87.8 -21.4 43.6-36.7 108.5 6.9 141.3 26.3 20.2 61.8 7.6 87.1-10.9 54-42.7 95.3-116.8 64.9-185.2 -16.8-38.9-64.8-32.2-94.7-10 -51.7 38.9-89.8 107.2-69.7 172.2 5.5 15.9 18.6 27.2 34.6 31.3 34 6.9 64.8-14.8 86.9-40.3 34.1-40.1 58.6-93.4 35.6-144.8 -12.5-25-43.2-31.2-66.8-18.1 36-20 75 10.1 74.5 49.2 0.1 44.5-18.2 84.9-48.5 118.3 -25.5 27.3-68.1 52.4-99.6 24.1 -36.5-32.4-22.2-89.1-0.3-127.3 22.7-41.6 62-86.4 112.3-80.3 31.8 4.3 46 39.2 44.8 69 -4.1 75.2-57.4 161.5-137.3 160 -20.6-0.4-34.4-14.7-42.1-33.1 -17.4-44.3-2.4-91.6 21.6-131.2 26.7-44.4 77.7-92.6 131.3-70.7 22.8 9.3 32.6 32.7 35 58.3 3.8 53-18.7 98.6-51.4 138.3 -31.9 36.3-84.4 72.2-126 38.1 -45.7-37.7-27.6-107.4-2.5-155.3 28.2-51.2 81.4-109.6 145.4-93.1 16.9 4.6 28 17.4 34.4 33.8 27.9 70.7-11.3 147.3-61 197.6 52.8-53.5 96.4-144.2 52-211.7 -25.4-38.8-80.7-23.6-113.4 3.4 -60.7 50.2-110.7 149.9-61.1 219.1 20.1 26.8 58.9 21.1 85.8 6.2 51.6-30.1 85.7-82.9 95.7-140.8 4.5-29.2 3.2-63-18.7-84.5 -21-21-50.9-17.9-76.8-4.8 -44.8 22.5-71.2 62-88 108.3 -15.5 41.9-16.5 101.1 28.7 118.2 48.6 17.8 92-25.9 116.9-65 25.8-38.5 43-89.7 20.9-134.2 -14.8-27.6-47.5-32.4-74.8-18.9 -46.8 23.9-76.9 67.7-88.2 117.1 -7.1 31.5-5 74.7 27.6 88.3 38.1 16.8 75.7-12.4 99.5-43.2 30.8-40.8 56-103.8 18.6-143.1 -34.3-36.2-85.5 1.7-109.1 36.4 -16.7 24.7-30.2 52.5-29.1 82.4 0.8-44 24.5-85.1 58.6-112.5 19.3-14.3 44.1-25.5 66.3-15.3 30.7 12.6 33.7 49.9 27.7 79.5 -12.8 56.2-52.7 117.2-115.2 119.4 -25.9 0.4-42.5-21.9-45.5-46.5 -7.7-65.4 28-127.5 85.5-159.3 18.4-8.5 38.8-12 55.9-3.5 31.8 17 33.6 58.7 25.9 91.2 -13.5 59.6-53.1 122-120.7 128.9 -18.4 2.1-34-6.9-44-21.5 -16.8-26.2-15.4-58.4-7-87.9 18.6-64.3 73.1-139.8 144.2-123 25 5.5 36.6 30 39.6 54.6 5.8 58-20.5 110.2-60 151.1 -32.1 32.4-91 58.2-122 16.3 -25.8-33.9-18.5-80.6-3.2-120.1 25.1-60.6 80.4-129.2 149.7-113.5 25.9 6 40.5 29.6 43.9 55.7 10.5 92.5-50 191.2-142 210.7 -31.6 6-60.1-16.8-68.5-47 6.1 21.3 22.5 39.6 44.2 44.5 57.6 12.8 106.7-36.5 136-83.2 31.1-52 54-134.2-0.2-174.3 -21.4-16.1-50.9-11.5-74.4 1.7 -72.1 42.4-125.3 132.6-91.5 214.4 17.4 44.3 71.6 37.3 105 13.3 60.4-45.4 112.4-140 65.9-206.2 -31.2-45.9-92.7-11.3-123.1 24.5 -35.2 42-58.8 95.9-44.5 149.8 10.6 39.1 53.9 48.8 87 29.7 66.1-38.3 124.9-140.5 65.6-201.3 -29.8-31.1-77.6-1.4-103.8 29.3 -34.1 40.1-58.6 93.4-35.6 144.8 11.6 24.5 44.2 31.8 66.7 18.1 -16.9 8.1-38.6 9.6-52-3.2 -44.6-39.6-17.5-108 13.9-149.7 25.5-33.7 74.7-70.2 111.1-37.8 45.5 40.1 16.4 109.9-14.6 153.1 -26 34.6-74.5 74.1-112.6 44.6 -66.3-50.8-11.2-155.2 45.4-200.2 32.1-26 88.7-32.9 105.5 12.4 23.5 65.6-12.2 134.1-61 178.5 -26.2 24.3-66.8 41.7-97 21.8 -46.2-30.4-33.1-97.9-11.5-143.9 24.9-51.8 72.4-104.6 131.9-99.5 29.6 1.8 47.3 28.5 51.9 56.6 7.1 53.7-12.8 103.2-45.7 145.4 -30.6 38.3-80 77.3-128.2 54.7 -28.3-12.5-38.5-43.8-38.2-74.1 1-59.2 29.9-113.7 70.3-154.1 -40.4 40.4-68.2 93-70.1 151.7 -0.3 30.3 7.7 65.4 38 76.5 87 29.7 154.2-70.2 171.9-147.8 9.3-41.7 0.5-98.9-45.8-107.7 -49.6-9.5-92.4 30.8-120.2 70.7 -18.3 27.6-29.7 57.9-34 91 -4 34.6 6.2 78.6 43.5 86.1 69.5 13.3 122.1-56.9 143.1-121.1 13.5-40.5 14.3-97.3-30.6-112.9 -48.6-17.8-94 27.3-119 66.3 -27.7 43.8-48.8 116.8-1 150.7 26 18.7 60.7 3.1 84.1-16.4 34.3-29.8 57.9-70.9 63.7-117.2 4.3-33.1-9.3-75.3-47.2-75.5 -34-0.5-62.4 21.3-82.6 47.8 -27.7 37.5-47.4 84.6-29.7 130.4 9.4 21.9 33.1 31.8 55.2 25.4 56.4-17.1 89.9-75.4 94.9-131 -2.1 42-23.7 81.7-55.5 109.2 -20.4 16.3-46.3 29.3-70.4 18 -36.2-15.8-34.3-61.7-22.6-96.9 17.2-51.1 55.3-100.4 109.5-101 30.7-0.1 46.7 29.4 47.5 57.9 0.3 61.2-33.9 116.5-87 147 -31 17.7-71.5 7.2-81.8-28 -13.3-47.1 6.1-95.7 34.3-134.1 21.3-28.5 49.3-51.7 86.5-54.5 17.8-1.2 34 6.9 44 21.5 19.9 29.3 14.3 66.7 3.7 100 -21.2 60.3-73.8 130.5-140.4 110 -58.1-18.2-45.2-95.9-23.6-142 26.7-57.1 98.1-134.3 155.9-85.8 57.3 49.5 18.7 137.9-25 190.3 -31 36.8-86 75.1-127.7 41 -56.1-45-25.8-131.8 12.1-185 22-31.9 52.3-58.9 90.5-70 33.2-8.8 68 7.3 78.3 40C506.5 235.8 506.9 237 506.9 237z" fill="#41BB93"/><ellipse transform="matrix(0.8668 0.4986 -0.4986 0.8668 217.1379 -156.4493)" cx="401.5" cy="328.3" rx="69.3" ry="109"/><path d="M479.6 260.7c-6.3-22.2-27.8-38.3-50.8-34.6 -62.3 12.2-101.4 75.4-106.2 135.7 -2 27.1 9.2 58 38 63.3 14 2.4 27.8-1 40.7-7.7 56.3-31.7 98.7-111.7 62-167.7 -12.1-18.3-36-17.9-55-10 -30.1 12.8-49.6 37.4-63.7 65 -15.9 32.3-27.2 80.4 5.1 104.6 19.5 15 45.7 5.6 64.5-8.1 40-31.6 70.6-86.5 48.1-137.1 -12.4-28.8-48-23.8-70.1-7.4 -38.3 28.8-66.5 79.4-51.6 127.6 4.1 11.8 13.8 20.2 25.6 23.2 25.2 5.1 48-11 64.3-29.9 25.3-29.7 43.4-69.2 26.3-107.3 -9.3-18.5-32-23.1-49.4-13.4 26.6-14.8 55.6 7.5 55.2 36.5 0.1 33-13.5 62.9-35.9 87.6 -18.9 20.2-50.4 38.8-73.7 17.8 -27-24-16.5-66-0.2-94.3 16.8-30.8 45.9-64 83.2-59.5 23.6 3.2 34.1 29 33.2 51.1 -3 55.7-42.5 119.6-101.7 118.5 -15.2-0.3-25.5-10.9-31.2-24.5 -12.9-32.8-1.8-67.9 16-97.2 19.8-32.9 57.6-68.6 97.2-52.4 16.9 6.9 24.1 24.2 25.9 43.2 2.8 39.3-13.9 73-38 102.4 -23.6 26.9-62.5 53.5-93.3 28.2 -33.8-27.9-20.4-79.6-1.9-115 20.9-37.9 60.3-81.1 107.7-69 12.5 3.4 20.7 12.9 25.5 25 20.7 52.4-8.4 109.1-45.2 146.3 39.1-39.6 71.4-106.8 38.5-156.8 -18.8-28.7-59.8-17.4-84 2.5 -45 37.2-82 111-45.3 162.3 14.9 19.9 43.6 15.7 63.6 4.6 38.2-22.3 63.4-61.4 70.8-104.3 3.4-21.6 2.4-46.7-13.9-62.6 -15.5-15.5-37.7-13.2-56.9-3.5 -33.2 16.7-52.7 45.9-65.2 80.2 -11.5 31-12.2 74.9 21.3 87.6 36 13.2 68.2-19.2 86.6-48.1 19.1-28.5 31.9-66.4 15.5-99.4 -10.9-20.4-35.2-24-55.4-14 -34.7 17.7-56.9 50.1-65.3 86.7 -5.3 23.3-3.7 55.3 20.4 65.4 28.2 12.5 56.1-9.2 73.7-32 22.8-30.2 41.5-76.9 13.8-106 -25.4-26.8-63.3 1.3-80.8 27 -12.4 18.3-22.4 38.9-21.5 61.1 0.6-32.6 18.1-63 43.4-83.3 14.3-10.6 32.6-18.9 49.1-11.3 22.8 9.3 25 37 20.5 58.9 -9.4 41.6-39 86.8-85.3 88.4 -19.2 0.3-31.5-16.2-33.7-34.4 -5.7-48.5 20.8-94.4 63.3-118 13.6-6.3 28.7-8.9 41.4-2.6 23.6 12.6 24.9 43.5 19.2 67.5 -10 44.2-39.3 90.4-89.4 95.5 -13.6 1.6-25.2-5.1-32.6-15.9 -12.4-19.4-11.4-43.3-5.2-65.1 13.8-47.6 54.1-103.5 106.8-91.1 18.5 4.1 27.1 22.2 29.3 40.4 4.3 43-15.2 81.6-44.4 111.9 -23.8 24-67.4 43.1-90.4 12.1 -19.1-25.1-13.7-59.7-2.4-88.9 18.6-44.9 59.6-95.7 110.9-84 19.2 4.5 30 22 32.5 41.3 7.8 68.5-37 141.6-105.2 156.1 -23.4 4.4-44.5-12.4-50.7-34.8 4.5 15.8 16.7 29.4 32.7 32.9 42.6 9.5 79-27 100.7-61.6 23.1-38.5 40-99.4-0.1-129.1 -15.8-11.9-37.7-8.5-55.1 1.2 -53.4 31.4-92.8 98.2-67.7 158.8 12.9 32.8 53 27.7 77.7 9.9 44.7-33.6 83.2-103.7 48.8-152.7 -23.1-34-68.6-8.4-91.2 18.2 -26.1 31.1-43.6 71-33 111 7.8 29 40 36.2 64.4 22 48.9-28.3 92.5-104 48.6-149.1 -22.1-23.1-57.4-1-76.9 21.7 -25.3 29.7-43.4 69.2-26.3 107.3 8.6 18.1 32.7 23.5 49.4 13.4 -12.5 6-28.6 7.1-38.5-2.4 -33-29.3-13-80 10.3-110.9 18.9-24.9 55.3-52 82.3-28 33.7 29.7 12.1 81.4-10.8 113.4 -19.3 25.6-55.2 54.9-83.4 33 -49.1-37.6-8.3-114.9 33.6-148.3 23.8-19.3 65.7-24.4 78.2 9.2 17.4 48.6-9.1 99.3-45.2 132.2 -19.4 18-49.5 30.9-71.8 16.1 -34.2-22.5-24.5-72.5-8.5-106.6 18.4-38.4 53.6-77.4 97.7-73.7 21.9 1.3 35 21.1 38.5 41.9 5.3 39.7-9.5 76.4-33.8 107.7 -22.7 28.4-59.2 57.3-94.9 40.5 -21-9.2-28.5-32.4-28.3-54.9 0.7-43.8 22.2-84.2 52-114.1 -29.9 29.9-50.5 68.9-51.9 112.3 -0.2 22.5 5.7 48.5 28.2 56.7 64.4 22 114.2-52 127.3-109.4 6.9-30.9 0.4-73.2-33.9-79.8 -36.8-7-68.4 22.8-89.1 52.4 -13.6 20.4-22 42.9-25.2 67.4 -2.9 25.6 4.6 58.2 32.3 63.8 51.5 9.8 90.4-42.1 106-89.7 10-30 10.6-72-22.6-83.6 -36-13.2-69.7 20.2-88.1 49.1 -20.5 32.5-36.2 86.5-0.7 111.6 19.2 13.9 44.9 2.3 62.3-12.2 25.4-22.1 42.9-52.5 47.2-86.8 3.2-24.5-6.9-55.8-35-55.9 -25.2-0.4-46.2 15.8-61.2 35.4 -20.5 27.8-35.1 62.7-22 96.6 7 16.3 24.6 23.5 40.9 18.8 41.8-12.7 66.6-55.9 70.3-97 -1.6 31.1-17.6 60.5-41.1 80.9 -15.1 12-34.3 21.7-52.1 13.3 -26.8-11.7-25.4-45.7-16.8-71.8 12.7-37.9 41-74.4 81.1-74.8 22.7-0.1 34.6 21.8 35.2 42.9 0.2 45.3-25.1 86.3-64.4 108.9 -23 13.1-52.9 5.3-60.6-20.7 -9.9-34.9 4.5-70.9 25.4-99.3 15.8-21.1 36.5-38.3 64-40.4 13.2-0.9 25.2 5.1 32.6 15.9 14.7 21.7 10.6 49.4 2.7 74.1 -15.7 44.6-54.7 96.6-104 81.4 -43-13.5-33.5-71-17.5-105.2 19.8-42.3 72.6-99.5 115.4-63.5 42.4 36.6 13.8 102.1-18.5 141 -22.9 27.3-63.7 55.6-94.5 30.4 -41.6-33.3-19.1-97.6 9-137 16.3-23.6 38.7-43.6 67-51.9 24.6-6.6 50.4 5.4 58 29.6C479.3 259.8 479.6 260.7 479.6 260.7z" fill="#41BB93"/><path d="M441.2 351.1c-21.1 36.8-56.1 56.3-78 43.7 -21.9-12.6-22.6-52.6-1.4-89.4 21.1-36.8 56.1-56.3 78-43.7C461.7 274.4 462.3 314.4 441.2 351.1z"/></svg>